<?xml version="1.0" standalone="no"?>
<!DOCTYPE svg PUBLIC "-//W3C//DTD SVG 20010904//EN"
 "http://www.w3.org/TR/2001/REC-SVG-20010904/DTD/svg10.dtd">
<svg version="1.0" xmlns="http://www.w3.org/2000/svg"
 width="114.000000pt" height="114.000000pt" viewBox="0 0 114.000000 114.000000"
 preserveAspectRatio="xMidYMid meet">
<metadata>
Created by potrace 1.11, written by Peter Selinger 2001-2013
</metadata>
<g transform="translate(0.000000,114.000000) scale(0.100000,-0.100000)"
fill="#000000" stroke="none">
<path d="M287 1018 c-21 -6 -53 -25 -70 -42 -29 -29 -41 -63 -125 -368 -50
-184 -92 -344 -92 -355 0 -58 80 -87 225 -81 110 4 164 23 198 69 25 34 198
664 195 708 -2 24 -12 40 -31 55 -25 18 -44 21 -145 23 -64 1 -134 -3 -155 -9z
m143 -123 c8 -10 10 -22 4 -34 -13 -26 -148 -200 -156 -201 -13 -1 61 224 78
237 24 17 59 16 74 -2z m-110 -461 c-31 -114 -51 -144 -96 -144 -13 0 -28 9
-34 21 -10 17 -4 30 41 87 28 37 66 86 83 108 17 23 32 41 34 39 1 -1 -11 -51
-28 -111z"/>
<path d="M803 1021 c-42 -11 -79 -35 -99 -66 -18 -28 -194 -657 -194 -695 0
-68 71 -96 229 -88 105 5 165 27 194 71 25 39 201 691 194 720 -13 48 -50 61
-177 64 -63 1 -130 -2 -147 -6z m140 -132 c8 -13 -7 -38 -72 -123 -46 -59 -85
-106 -86 -104 -8 8 56 212 71 230 21 23 72 21 87 -3z m-118 -459 c-19 -66 -41
-120 -51 -127 -37 -27 -94 -4 -80 32 7 18 159 215 163 212 1 -2 -13 -54 -32
-117z"/>
</g>
</svg>
